<?xml version="1.0" standalone="no"?><!DOCTYPE svg PUBLIC "-//W3C//DTD SVG 1.1//EN" "http://www.w3.org/Graphics/SVG/1.1/DTD/svg11.dtd"><svg class="icon" width="200px" height="200.00px" viewBox="0 0 1024 1024" version="1.1" xmlns="http://www.w3.org/2000/svg"><path fill="#5b872b" d="M511.990279 128.255059c-211.93183 0-383.745964 171.803901-383.745964 383.743918 0 211.942063 171.814134 383.745964 383.745964 383.745964C723.941552 895.744941 895.754662 723.94104 895.754662 511.998977 895.754662 300.05896 723.941552 128.255059 511.990279 128.255059zM511.990279 855.350952c-189.624778 0-343.331509-153.707754-343.331509-343.340719 0-189.644221 153.707754-343.361185 343.331509-343.361185 189.643198 0 343.371418 153.716964 343.371418 343.361185C855.361697 701.643198 701.633477 855.350952 511.990279 855.350952zM465.185276 576.920592 361.576547 473.310839l-36.982286 37.002752 139.526777 139.545196 1.065262-1.065262 1.065262 1.065262 235.9345-235.936547-37.000706-37.002752L465.185276 576.920592z" /></svg>